/* XPM */
static char * ruby_xpm[] = {
"15 15 183 2",
"  	c None",
". 	c #CF837B",
"+ 	c #D68D88",
"@ 	c #C34E49",
"# 	c #B01510",
"$ 	c #960B03",
"% 	c #BD6965",
"& 	c #BA3227",
"* 	c #C32516",
"= 	c #CA200E",
"- 	c #DF665D",
"; 	c #D87E7A",
"> 	c #B11F17",
", 	c #9B0E05",
"' 	c #880E07",
") 	c #6D0D06",
"! 	c #B44A43",
"~ 	c #B5281D",
"{ 	c #B50F02",
"] 	c #BB1101",
"^ 	c #BF1301",
"/ 	c #D54C40",
"( 	c #E8A6A1",
"_ 	c #C04942",
": 	c #991008",
"< 	c #8D0D06",
"[ 	c #7A0A04",
"} 	c #AC382E",
"| 	c #AB1508",
"1 	c #B00F00",
"2 	c #B40E00",
"3 	c #B60E00",
"4 	c #B81202",
"5 	c #D04E43",
"6 	c #CD4034",
"7 	c #C4291C",
"8 	c #AA170C",
"9 	c #880A04",
"0 	c #720500",
"a 	c #AF5149",
"b 	c #A61608",
"c 	c #AB1000",
"d 	c #B20E00",
"e 	c #B92519",
"f 	c #D0665F",
"g 	c #B6170C",
"h 	c #B21308",
"i 	c #AC0F05",
"j 	c #970902",
"k 	c #750400",
"l 	c #9C1F15",
"m 	c #A41100",
"n 	c #AA1000",
"o 	c #AE1000",
"p 	c #AF0F00",
"q 	c #B01509",
"r 	c #D68781",
"s 	c #BE5450",
"t 	c #A30902",
"u 	c #A00801",
"v 	c #970600",
"w 	c #8A0500",
"x 	c #7D0200",
"y 	c #952D28",
"z 	c #8F0A02",
"A 	c #9E0D00",
"B 	c #A51000",
"C 	c #A91100",
"D 	c #AC1A0D",
"E 	c #CB665E",
"F 	c #EAA6A1",
"G 	c #C4544E",
"H 	c #9C0601",
"I 	c #9A0600",
"J 	c #8F0500",
"K 	c #870400",
"L 	c #850100",
"M 	c #AD3530",
"N 	c #8D0A05",
"O 	c #940900",
"P 	c #9B0E00",
"Q 	c #A41A0D",
"R 	c #C3564E",
"S 	c #D45E56",
"T 	c #D45047",
"U 	c #BF342C",
"V 	c #960802",
"W 	c #8D0600",
"X 	c #880500",
"Y 	c #8C0300",
"Z 	c #890000",
"` 	c #D6A8A6",
" .	c #CD5751",
"..	c #A61E18",
"+.	c #8B0B05",
"@.	c #9C2822",
"#.	c #C46963",
"$.	c #C2352D",
"%.	c #BF2118",
"&.	c #BE1F15",
"*.	c #B41810",
"=.	c #940802",
"-.	c #860500",
";.	c #820700",
">.	c #910501",
",.	c #8C0101",
"'.	c #D1706B",
").	c #E79E99",
"!.	c #DA7A75",
"~.	c #D38A87",
"{.	c #DCA3A2",
"].	c #B3322D",
"^.	c #A90E05",
"/.	c #AB0D06",
"(.	c #AC0D05",
"_.	c #AA0C04",
":.	c #920701",
"<.	c #810600",
"[.	c #870E03",
"}.	c #990C06",
"|.	c #8F0808",
"1.	c #B63129",
"2.	c #D87774",
"3.	c #EDA4A1",
"4.	c #EB9692",
"5.	c #CE5B5D",
"6.	c #A10F10",
"7.	c #990600",
"8.	c #980601",
"9.	c #980600",
"0.	c #9C0700",
"a.	c #900700",
"b.	c #860B02",
"c.	c #891103",
"d.	c #9E110A",
"e.	c #9B140D",
"f.	c #B62625",
"g.	c #D94C46",
"h.	c #D94540",
"i.	c #BA2125",
"j.	c #9D0708",
"k.	c #910500",
"l.	c #8A0501",
"m.	c #990907",
"n.	c #920F06",
"o.	c #881102",
"p.	c #9E140C",
"q.	c #8E0E09",
"r.	c #A10E0D",
"s.	c #BB1E1B",
"t.	c #C01D1D",
"u.	c #A90C12",
"v.	c #9A0604",
"w.	c #900600",
"x.	c #8D0603",
"y.	c #A80C0E",
"z.	c #BB1217",
"A.	c #C0171B",
"B.	c #9F150D",
"C.	c #99150B",
"D.	c #970D0A",
"E.	c #9F0E0C",
"F.	c #AD0B0F",
"G.	c #A1070D",
"H.	c #980603",
"I.	c #8E0701",
"J.	c #8C0904",
"K.	c #9F0D0B",
"L.	c #B31314",
"M.	c #BF181B",
"N.	c #CB1E22",
"O.	c #CD2326",
"P.	c #AD201B",
"Q.	c #800C09",
"R.	c #860C08",
"S.	c #9F060D",
"T.	c #97070A",
"U.	c #890904",
"V.	c #810C05",
"W.	c #830E06",
"X.	c #870F08",
"Y.	c #8A100A",
"Z.	c #8A120D",
"                . + @ # $     ",
"          % & * = - ; > , ' ) ",
"        ! ~ { ] ^ / ( _ : < [ ",
"      } | 1 2 3 4 5 6 7 8 9 0 ",
"    a b c 1 d d e f g h i j k ",
"    l m n o p q r s t u v w x ",
"  y z A B C D E F G H I J K L ",
"  M N O P Q R S T U V W X Y Z ",
"`  ...+.@.#.$.%.&.*.=.-.;.>.,.",
"'.).!.~.{.].^./.(._.:.<.[.}.|.",
"1.2.3.4.5.6.7.8.9.0.a.b.c.d.  ",
"e.f.g.h.i.j.v k.w l.m.n.o.p.  ",
"q.r.s.t.u.v.w.w x.y.z.A.B.C.  ",
"  D.E.F.G.H.I.J.K.L.M.N.O.P.  ",
"  Q.R.S.T.U.V.W.X.Y.Z.        "};
